<svg width="101" height="43" viewBox="0 0 101 43" fill="none" xmlns="http://www.w3.org/2000/svg">
<path d="M46.1173 42.4999H16.2784L0 27.6493V0.416504H46.1173V42.4999Z" fill="#AFB9C3"/>
<path d="M8.13912 35.0703H0.00390625V42.4943H8.13912V35.0703Z" fill="#001C32"/>
<path d="M16.2784 42.4994L0 27.6489H16.2784V42.4994Z" fill="#001C32"/>
<path d="M17.0945 19.0782C17.0945 17.5851 18.4999 16.2373 20.8227 16.2373C22.6338 16.2373 23.7899 16.8181 24.4475 17.5198L22.7266 19.0588C22.4838 18.7939 22.1822 18.579 21.8417 18.4284C21.5011 18.2778 21.1294 18.195 20.7511 18.1853C20.1466 18.1853 19.7594 18.4781 19.7594 18.9112C19.7594 20.2881 24.4846 19.7848 24.4846 22.8386C24.4846 24.0485 23.424 25.694 20.5204 25.694C18.3169 25.694 16.9805 24.8495 16.4316 24.3147L18.0226 22.6208C18.3524 22.9654 18.7564 23.2443 19.2094 23.4404C19.6623 23.6365 20.1546 23.7454 20.6557 23.7605C21.4909 23.7605 21.8038 23.4 21.8038 22.9741C21.825 21.6892 17.0945 22.1272 17.0945 19.0782Z" fill="#001C32"/>
<path d="M27.6832 12.5514C28.0926 12.5468 28.4873 12.6904 28.7809 12.9507C29.0746 13.211 29.2434 13.5668 29.2504 13.9404V14.0105C29.2435 14.2887 29.1473 14.5589 28.9737 14.7876C28.8001 15.0163 28.5567 15.1935 28.2737 15.297C27.9908 15.4006 27.6807 15.4261 27.382 15.3703C27.0833 15.3145 26.8092 15.1799 26.5936 14.9831C26.378 14.7864 26.2305 14.5362 26.1693 14.2636C26.1082 13.9911 26.1361 13.7081 26.2496 13.4499C26.3631 13.1916 26.5572 12.9695 26.8078 12.8111C27.0585 12.6526 27.3546 12.5649 27.6594 12.5586L27.6832 12.5514ZM26.3733 16.3989H29.0594V25.5629H26.3733V16.3989Z" fill="#001C32"/>
<path d="M42.449 16.1886C44.4245 16.1886 45.5461 17.142 45.5461 19.2497V25.563H42.8627V19.6659C42.8627 18.5963 42.2581 18.2406 41.5634 18.2406C41.2037 18.25 40.8545 18.3538 40.5577 18.5396C40.261 18.7255 40.0292 18.9854 39.8902 19.2884V25.5558H37.2041V19.8764C37.2041 18.8068 36.7259 18.272 35.7696 18.272C35.424 18.2971 35.0937 18.4131 34.8189 18.6059C34.544 18.7987 34.3364 19.0602 34.221 19.3586V25.563H31.5376V16.3991H33.7411L34.1892 17.2727H34.2608C34.5841 16.9206 34.9907 16.6401 35.45 16.4523C35.9093 16.2645 36.4094 16.1743 36.9124 16.1886C38.4424 16.1886 39.0629 16.7717 39.4209 17.4178H39.4925C39.8473 17.018 40.2991 16.6989 40.8122 16.4855C41.3252 16.2722 41.8856 16.1705 42.449 16.1886Z" fill="#001C32"/>
<path d="M52.1494 25.6137C51.6288 25.6186 51.1094 25.5699 50.6008 25.4685V28.7135H47.9492V16.4063H49.9247L50.4921 17.2024H50.5664C50.864 16.8952 51.2321 16.6516 51.6446 16.489C52.057 16.3263 52.5037 16.2485 52.9528 16.2611C55.1589 16.2611 56.6651 17.7735 56.6651 20.6386C56.6624 23.9779 54.565 25.6137 52.1494 25.6137ZM51.8259 23.6391C53.1278 23.6391 53.9259 22.9567 53.9259 20.8176C53.9259 18.9955 53.088 18.2163 52.0433 18.2163C51.7522 18.2144 51.4651 18.2782 51.2074 18.4018C50.9498 18.5255 50.7296 18.7053 50.5664 18.9253V23.3778C50.9587 23.552 51.3896 23.6414 51.8259 23.6391Z" fill="#001C32"/>
<path d="M61.2531 13.2681V22.6787C61.2531 23.3563 61.5951 23.5862 62.0883 23.5862C62.2141 23.5905 62.3399 23.5791 62.4622 23.5523V25.4881C62.0558 25.6396 61.6205 25.7161 61.1815 25.7132C59.5454 25.7132 58.5669 24.8348 58.5669 23.3103V13.2681H61.2531Z" fill="#001C32"/>
<path d="M72.0724 24.7216C71.2769 25.3072 70.3064 25.7451 68.3867 25.7451C65.2313 25.7451 63.5952 24.1214 63.5952 20.9587C63.5952 17.9896 65.4116 16.2207 68.3071 16.2207C70.8659 16.2207 72.3429 17.6992 72.3429 19.9351C72.3456 20.4839 72.3057 21.0322 72.2236 21.5758H66.2362C66.276 23.0277 66.9866 23.8165 68.6916 23.8165C69.1011 23.8201 69.5072 23.7484 69.8857 23.6058C70.2643 23.4632 70.6075 23.2526 70.8951 22.9865L72.0724 24.7216ZM66.3184 19.9521H69.861V19.7101C69.861 18.6381 69.3837 18.0743 68.27 18.0743C67.0344 18.0743 66.3237 18.8825 66.2893 19.9569L66.3184 19.9521Z" fill="#001C32"/>
<path d="M28.1778 28.5171C28.3219 28.5157 28.4632 28.5533 28.5839 28.6251C28.7046 28.6969 28.7993 28.7998 28.856 28.9207C28.9127 29.0416 28.9289 29.1751 28.9025 29.3044C28.8761 29.4337 28.8083 29.5529 28.7078 29.6471C28.6072 29.7412 28.4783 29.8061 28.3373 29.8334C28.1964 29.8608 28.0497 29.8494 27.9158 29.8008C27.782 29.7521 27.6669 29.6683 27.5852 29.56C27.5034 29.4517 27.4587 29.3238 27.4566 29.1923C27.4544 29.0185 27.5271 28.8508 27.659 28.7255C27.7909 28.6001 27.9715 28.527 28.1619 28.522L28.1778 28.5171ZM27.8066 31.3967H28.6683V38.7869H27.8066V31.3967Z" fill="#001C32"/>
<path d="M37.5619 38.7869H36.7027V33.8989C36.7027 32.6889 36.0239 32.009 34.7829 32.009C34.2908 32.0091 33.8106 32.1473 33.4075 32.4048C33.0043 32.6624 32.6976 33.0268 32.5291 33.4488V38.7966H31.6699V31.3968H32.3116L32.5078 32.205H32.5609C32.8512 31.8992 33.2116 31.6554 33.6168 31.4911C34.0219 31.3267 34.4617 31.2458 34.9049 31.254C36.5277 31.254 37.5194 32.067 37.5566 33.7004L37.5619 38.7869Z" fill="#001C32"/>
<path d="M41.6775 36.0774C41.9188 36.7187 42.1124 37.3624 42.2927 38.0133H42.3537C42.5499 37.3696 42.7753 36.7042 43.0007 36.0774L44.6978 31.3999H45.6285L42.8469 38.7877H41.7862L39.002 31.3975H39.9619L41.6775 36.0774Z" fill="#001C32"/>
<path d="M52.5895 38.2553C51.863 38.6782 51.0141 38.8923 50.1527 38.87C47.9147 38.87 46.687 37.8585 46.687 35.0611C46.687 32.2638 48.3734 31.291 50.0439 31.291C51.9239 31.291 52.913 32.4138 52.913 34.1561C52.913 34.5118 52.8865 34.9764 52.8361 35.4193H47.5727C47.6893 37.4205 48.5962 38.1319 50.2799 38.1319C50.9625 38.1408 51.6317 37.9584 52.1971 37.6092L52.5895 38.2553ZM47.5727 34.674H51.977V34.19C51.977 32.8228 51.33 32.0436 49.9008 32.0436C48.8401 32.0436 47.6893 32.6437 47.5727 34.6861V34.674Z" fill="#001C32"/>
<path d="M54.8958 33.2731C54.8958 32.2471 55.8557 31.2888 57.6005 31.2888C58.4079 31.2677 59.1952 31.5213 59.8093 32.0002L59.2339 32.6004C58.7781 32.2231 58.1812 32.0196 57.566 32.0317C56.2905 32.0317 55.7682 32.6004 55.7682 33.261C55.7682 35.0928 59.9286 34.3281 59.9286 36.8569C59.9286 37.8877 58.9714 38.9137 57.1338 38.9137C56.1275 38.9526 55.1429 38.6392 54.3813 38.0377L54.9568 37.4086C55.2515 37.6682 55.6001 37.8713 55.9822 38.0059C56.3643 38.1406 56.7721 38.2041 57.1815 38.1926C58.4251 38.1926 59.0589 37.5852 59.0589 36.8835C59.0562 35.0154 54.8958 35.7873 54.8958 33.2731Z" fill="#001C32"/>
<path d="M62.4694 36.9371V32.0853H61.2231V31.5602L62.4747 31.4005L62.7107 29.4404H63.3445V31.4005H65.6249V32.0877H63.3445V36.8427C63.3445 37.7623 63.8244 38.1519 64.604 38.1519C65.0471 38.1791 65.49 38.0954 65.8848 37.9099L66.15 38.5802C65.6234 38.8027 65.0459 38.9065 64.4662 38.8827C63.1324 38.856 62.4694 38.2148 62.4694 36.9371Z" fill="#001C32"/>
<path d="M75.4385 31.2573C77.0295 31.2573 77.9363 32.1308 77.9363 33.7037V38.7853H77.0772V33.8779C77.0772 32.668 76.462 32.0001 75.3351 32.0001C74.8906 31.9932 74.4555 32.1167 74.0936 32.3524C73.7318 32.588 73.4624 32.9234 73.3251 33.3093V38.7829H72.466V33.9433C72.466 32.697 71.8508 32.0074 70.7265 32.0074C70.2617 32.0008 69.8085 32.1403 69.443 32.4024C69.0775 32.6646 68.822 33.0335 68.7192 33.4472V38.795H67.8574V31.3976H68.5018L68.6953 32.2203H68.759C68.9787 31.901 69.2895 31.6422 69.658 31.4717C70.0266 31.3012 70.439 31.2254 70.8511 31.2524C72.047 31.2524 72.7232 31.7751 73.0255 32.4768H73.0891C73.341 31.8477 74.1365 31.2573 75.4385 31.2573Z" fill="#001C32"/>
<path d="M85.9808 38.2553C85.2551 38.6758 84.4087 38.8897 83.5493 38.87C81.3113 38.87 80.0757 37.8585 80.0757 35.0611C80.0757 32.2638 81.7621 31.291 83.43 31.291C85.3073 31.291 86.299 32.4138 86.299 34.1561C86.299 34.5118 86.2699 34.9764 86.2195 35.4193H81.0038C81.1178 37.4205 82.0193 38.1319 83.7084 38.1319C84.391 38.1408 85.0601 37.9584 85.6255 37.6092L85.9808 38.2553ZM80.9666 34.674H85.3551V34.19C85.3551 32.8228 84.7054 32.0436 83.2762 32.0436C82.2262 32.0315 81.0807 32.6316 80.9666 34.674Z" fill="#001C32"/>
<path d="M94.4491 38.7877H93.5873V33.8997C93.5873 32.6898 92.9165 32.0098 91.6702 32.0098C91.178 32.0087 90.6976 32.1464 90.2946 32.4042C89.8915 32.6619 89.5857 33.0271 89.4189 33.4496V38.7974H88.5571V31.3976H89.2068L89.3977 32.2082H89.4587C89.7498 31.9033 90.1105 31.6602 90.5154 31.496C90.9203 31.3317 91.3597 31.2502 91.8028 31.2573C93.4229 31.2573 94.4173 32.0703 94.4544 33.7037L94.4491 38.7877Z" fill="#001C32"/>
<path d="M97.3251 36.9371V32.0853H96.0762V31.5602L97.3251 31.4005L97.5637 29.4404H98.1975V31.4005H100.478V32.0877H98.1975V36.8427C98.1975 37.7623 98.6774 38.1519 99.457 38.1519C99.8994 38.1812 100.342 38.0974 100.735 37.9099L101 38.5802C100.473 38.8029 99.8944 38.9067 99.3138 38.8827C97.98 38.856 97.3251 38.2148 97.3251 36.9371Z" fill="#001C32"/>
</svg>
