<svg width="8" height="16" viewBox="0 0 8 16" fill="none" xmlns="http://www.w3.org/2000/svg">
<path fill-rule="evenodd" clip-rule="evenodd" d="M0 7.55896V4.94649H1.65551C1.65701 4.92312 1.65701 4.89968 1.65551 4.87631C1.65551 4.50957 1.65551 4.1632 1.65551 3.79872C1.65551 3.43425 1.65551 3.13542 1.6849 2.79811C1.71158 2.33054 1.83897 1.87259 2.05959 1.45112C2.21526 1.15876 2.43394 0.898901 2.70221 0.687509C2.97048 0.476117 3.28266 0.317656 3.61959 0.221856C3.94869 0.12072 4.29006 0.0576076 4.63592 0.0339576C4.88082 0.0181107 5.14775 0 5.4098 0H7.4449C7.52816 0 7.52816 -2.02403e-08 7.52816 0.0769706V2.54456C7.52816 2.61021 7.52816 2.61021 7.4449 2.61021C6.9551 2.61021 6.46531 2.61021 5.97551 2.61021C5.83287 2.61213 5.69117 2.63193 5.55429 2.66907C5.41883 2.69457 5.29671 2.7617 5.20777 2.85953C5.11884 2.95736 5.06834 3.08013 5.06449 3.20786C5.04245 3.43425 5.04245 3.66063 5.04 3.88701C5.04 4.22206 5.04 4.55032 5.02775 4.88763C5.029 4.90767 5.03311 4.92746 5.04 4.94649H7.54286C7.44245 5.82033 7.34449 6.68512 7.24653 7.55217H5.08653C5.00816 7.55217 5.00816 7.55217 5.00816 7.61556V15.0862H1.66531V7.6631C1.66531 7.54538 1.66531 7.56575 1.56 7.56575H0V7.55896Z" fill="#F2F1F1" fill-opacity="0.6"/>
</svg>
