<svg width="38" height="32" viewBox="0 0 38 32" fill="none" xmlns="http://www.w3.org/2000/svg">
<path d="M0.295487 21.2755L35.0597 0.286065C35.9822 -0.258001 37.164 0.0283493 37.7117 0.916036C37.9135 1.23102 38 1.57464 38 1.91826V2.0328V19.9583C38 21.2755 36.9334 22.335 35.6074 22.335C35.2327 22.335 34.8868 22.2491 34.5697 22.106L34.3967 22.0201L25.8066 17.9539L29.6981 16.8944L21.7421 30.4388C20.8485 31.9278 18.9171 32.4432 17.4182 31.5842C16.9858 31.3264 16.6399 31.0115 16.3804 30.6392L16.2363 30.4101L0.843183 7.64527C-0.6846 5.3831 -0.079252 2.34779 2.19801 0.83013C4.47527 -0.687527 7.50201 -0.0575559 9.02979 2.17598C9.14509 2.34779 9.2604 2.5196 9.34688 2.69141L21.7997 27.203L16.294 27.1744L24.7112 13.9163L24.8265 13.7445C25.6336 12.456 27.3344 12.0837 28.6315 12.8568L36.7317 17.7534L33.1284 19.8152L34.0797 1.91826L37.0199 3.665L0.843183 22.2778C0.554922 22.421 0.209009 22.3064 0.0648786 22.0201C-0.0504257 21.7623 0.0360525 21.4474 0.295487 21.2755Z" fill="#001C32"/>
</svg>
