<svg width="14" height="14" viewBox="0 0 14 14" fill="none" xmlns="http://www.w3.org/2000/svg">
<path fill-rule="evenodd" clip-rule="evenodd" d="M13.7078 3.75278C13.6775 2.97576 13.4241 2.2239 12.9779 1.58705C12.2533 0.596766 11.2094 0.172743 10.0152 0.0600286C8.94176 -0.0151147 7.83611 0.0170896 6.74925 0.00635489H6.34939C5.38231 -0.0147207 4.41479 0.0166348 3.45109 0.100284C2.68174 0.156826 1.95083 0.458737 1.36584 0.961624C0.780847 1.46451 0.37264 2.14184 0.201245 2.894C0.0520797 3.58593 -0.0145806 4.29309 0.00265801 5.0007C0.00265801 6.10906 0.00265801 7.22011 0.00265801 8.32847C-0.00897107 9.00696 0.0224004 9.6855 0.0965841 10.36C0.158918 11.1215 0.459502 11.844 0.95567 12.425C1.45184 13.0059 2.11838 13.4158 2.8607 13.5966C3.55539 13.7319 4.26237 13.794 4.97002 13.7817C6.08371 13.7817 7.20278 13.7817 8.31111 13.7817C8.97883 13.7957 9.64673 13.7652 10.3104 13.6905C11.1458 13.6289 11.9342 13.2802 12.5417 12.7034C13.1493 12.1267 13.5385 11.3575 13.6434 10.5264C13.7444 9.8515 13.7848 9.16892 13.7642 8.48681C13.7642 6.90075 13.8125 5.33348 13.7078 3.75278ZM12.5217 7.78637C12.5217 8.51365 12.5217 9.24093 12.4653 9.97089C12.4439 10.6817 12.1453 11.3559 11.6334 11.8495C11.2253 12.1792 10.7303 12.3833 10.2084 12.4372C9.66855 12.5087 9.12387 12.5375 8.57947 12.5231C7.44967 12.5231 6.31987 12.5231 5.18202 12.5231C4.59226 12.5361 4.00246 12.4993 3.41889 12.413C2.8699 12.3431 2.36212 12.085 1.98195 11.6828C1.60178 11.2806 1.37272 10.7591 1.33373 10.2071C1.27713 9.66324 1.25026 9.11674 1.25322 8.57C1.25322 7.45896 1.25322 6.32107 1.25322 5.19661C1.24054 4.59881 1.27734 4.001 1.36325 3.40927C1.43843 2.86582 1.69759 2.36456 2.09753 1.98902C2.49747 1.61348 3.01404 1.38636 3.56112 1.34552C4.09784 1.28111 4.65335 1.28111 5.19276 1.25964C5.73216 1.23817 6.32524 1.25964 6.89148 1.25964C7.91125 1.25964 8.93371 1.23817 9.94811 1.31331C10.6834 1.37772 11.3597 1.58168 11.8562 2.17746C12.2262 2.63457 12.4373 3.19985 12.4573 3.78767C12.5432 5.1322 12.5217 6.46062 12.5217 7.78637Z" fill="#F2F1F1" fill-opacity="0.6"/>
<path fill-rule="evenodd" clip-rule="evenodd" d="M10.5652 4.05557C10.4007 4.06035 10.2385 4.01608 10.0993 3.92839C9.96004 3.84071 9.85002 3.71357 9.78325 3.56317C9.71648 3.41276 9.69596 3.24589 9.72432 3.0838C9.75268 2.9217 9.82862 2.7717 9.94249 2.6529C10.0564 2.5341 10.203 2.45186 10.3638 2.41666C10.5245 2.38145 10.6921 2.39487 10.8452 2.45521C10.9983 2.51555 11.13 2.62007 11.2235 2.75548C11.317 2.89089 11.3681 3.05106 11.3703 3.21561C11.3728 3.32367 11.3539 3.43117 11.3148 3.53193C11.2756 3.63269 11.217 3.72473 11.1422 3.80276C11.0674 3.8808 10.9779 3.94331 10.8789 3.98669C10.7799 4.03007 10.6733 4.05348 10.5652 4.05557Z" fill="#F2F1F1" fill-opacity="0.6"/>
<path fill-rule="evenodd" clip-rule="evenodd" d="M6.90246 3.36039C6.2017 3.3572 5.51577 3.56208 4.93155 3.94907C4.34734 4.33605 3.89115 4.88773 3.62077 5.53421C3.35039 6.18069 3.27799 6.89288 3.41274 7.58054C3.5475 8.2682 3.88334 8.90039 4.37773 9.39701C4.87212 9.89364 5.50279 10.2324 6.18986 10.3702C6.87693 10.5081 7.58946 10.439 8.23719 10.1716C8.88492 9.90413 9.4387 9.45047 9.82836 8.86806C10.218 8.28564 10.426 7.60067 10.426 6.89993C10.4253 5.96418 10.0544 5.06673 9.39421 4.40355C8.73402 3.74037 7.83823 3.36535 6.90246 3.36039ZM6.86758 9.18359C6.41565 9.18041 5.97477 9.04353 5.60051 8.7902C5.22624 8.53688 4.93535 8.17844 4.76448 7.76006C4.59361 7.34168 4.55041 6.88208 4.64033 6.43919C4.73025 5.9963 4.94926 5.58994 5.26976 5.27131C5.59026 4.95269 5.99791 4.73606 6.44134 4.64873C6.88476 4.56141 7.34412 4.60728 7.76151 4.78059C8.1789 4.95389 8.53565 5.24686 8.7868 5.62258C9.03795 5.9983 9.17226 6.43995 9.1728 6.89188C9.17388 7.19426 9.11489 7.49385 8.99926 7.77326C8.88362 8.05267 8.71365 8.30633 8.4992 8.51953C8.28474 8.73272 8.03008 8.90121 7.74999 9.0152C7.4699 9.1292 7.16996 9.18643 6.86758 9.18359Z" fill="#F2F1F1" fill-opacity="0.6"/>
<g style="mix-blend-mode:overlay">
<g style="mix-blend-mode:overlay">
<path fill-rule="evenodd" clip-rule="evenodd" d="M13.7078 3.75278C13.6775 2.97576 13.4241 2.2239 12.9779 1.58705C12.2533 0.596766 11.2094 0.172743 10.0152 0.0600286C8.94176 -0.0151147 7.83611 0.0170896 6.74925 0.00635489H6.34939C5.38231 -0.0147207 4.41479 0.0166348 3.45109 0.100284C2.68174 0.156826 1.95083 0.458737 1.36584 0.961624C0.780847 1.46451 0.37264 2.14184 0.201245 2.894C0.0520797 3.58593 -0.0145806 4.29309 0.00265801 5.0007C0.00265801 6.10906 0.00265801 7.22011 0.00265801 8.32847C-0.00897107 9.00696 0.0224004 9.6855 0.0965841 10.36C0.158918 11.1215 0.459502 11.844 0.95567 12.425C1.45184 13.0059 2.11838 13.4158 2.8607 13.5966C3.55539 13.7319 4.26237 13.794 4.97002 13.7817C6.08371 13.7817 7.20278 13.7817 8.31111 13.7817C8.97883 13.7957 9.64673 13.7652 10.3104 13.6905C11.1458 13.6289 11.9342 13.2802 12.5417 12.7034C13.1493 12.1267 13.5385 11.3575 13.6434 10.5264C13.7444 9.8515 13.7848 9.16892 13.7642 8.48681C13.7642 6.90075 13.8125 5.33348 13.7078 3.75278ZM12.5217 7.78637C12.5217 8.51365 12.5217 9.24093 12.4653 9.97089C12.4439 10.6817 12.1453 11.3559 11.6334 11.8495C11.2253 12.1792 10.7303 12.3833 10.2084 12.4372C9.66855 12.5087 9.12387 12.5375 8.57947 12.5231C7.44967 12.5231 6.31987 12.5231 5.18202 12.5231C4.59226 12.5361 4.00246 12.4993 3.41889 12.413C2.8699 12.3431 2.36212 12.085 1.98195 11.6828C1.60178 11.2806 1.37272 10.7591 1.33373 10.2071C1.27713 9.66324 1.25026 9.11674 1.25322 8.57C1.25322 7.45896 1.25322 6.32107 1.25322 5.19661C1.24054 4.59881 1.27734 4.001 1.36325 3.40927C1.43843 2.86582 1.69759 2.36456 2.09753 1.98902C2.49747 1.61348 3.01404 1.38636 3.56112 1.34552C4.09784 1.28111 4.65335 1.28111 5.19276 1.25964C5.73216 1.23817 6.32524 1.25964 6.89148 1.25964C7.91125 1.25964 8.93371 1.23817 9.94811 1.31331C10.6834 1.37772 11.3597 1.58168 11.8562 2.17746C12.2262 2.63457 12.4373 3.19985 12.4573 3.78767C12.5432 5.1322 12.5217 6.46062 12.5217 7.78637Z" fill="#F2F1F1" fill-opacity="0.6"/>
</g>
<g style="mix-blend-mode:overlay">
<path fill-rule="evenodd" clip-rule="evenodd" d="M10.5652 4.05557C10.4007 4.06035 10.2385 4.01608 10.0993 3.92839C9.96004 3.84071 9.85002 3.71357 9.78325 3.56317C9.71648 3.41276 9.69596 3.24589 9.72432 3.0838C9.75268 2.9217 9.82862 2.7717 9.94249 2.6529C10.0564 2.5341 10.203 2.45186 10.3638 2.41666C10.5245 2.38145 10.6921 2.39487 10.8452 2.45521C10.9983 2.51555 11.13 2.62007 11.2235 2.75548C11.317 2.89089 11.3681 3.05106 11.3703 3.21561C11.3728 3.32367 11.3539 3.43117 11.3148 3.53193C11.2756 3.63269 11.217 3.72473 11.1422 3.80276C11.0674 3.8808 10.9779 3.94331 10.8789 3.98669C10.7799 4.03007 10.6733 4.05348 10.5652 4.05557Z" fill="#F2F1F1" fill-opacity="0.6"/>
</g>
<g style="mix-blend-mode:overlay">
<path fill-rule="evenodd" clip-rule="evenodd" d="M6.90246 3.36039C6.2017 3.3572 5.51577 3.56208 4.93155 3.94907C4.34734 4.33605 3.89115 4.88773 3.62077 5.53421C3.35039 6.18069 3.27799 6.89288 3.41274 7.58054C3.5475 8.2682 3.88334 8.90039 4.37773 9.39701C4.87212 9.89364 5.50279 10.2324 6.18986 10.3702C6.87693 10.5081 7.58946 10.439 8.23719 10.1716C8.88492 9.90413 9.4387 9.45047 9.82836 8.86806C10.218 8.28564 10.426 7.60067 10.426 6.89993C10.4253 5.96418 10.0544 5.06673 9.39421 4.40355C8.73402 3.74037 7.83823 3.36535 6.90246 3.36039ZM6.86758 9.18359C6.41565 9.18041 5.97477 9.04353 5.60051 8.7902C5.22624 8.53688 4.93535 8.17844 4.76448 7.76006C4.59361 7.34168 4.55041 6.88208 4.64033 6.43919C4.73025 5.9963 4.94926 5.58994 5.26976 5.27131C5.59026 4.95269 5.99791 4.73606 6.44134 4.64873C6.88476 4.56141 7.34412 4.60728 7.76151 4.78059C8.1789 4.95389 8.53565 5.24686 8.7868 5.62258C9.03795 5.9983 9.17226 6.43995 9.1728 6.89188C9.17388 7.19426 9.11489 7.49385 8.99926 7.77326C8.88362 8.05267 8.71365 8.30633 8.4992 8.51953C8.28474 8.73272 8.03008 8.90121 7.74999 9.0152C7.4699 9.1292 7.16996 9.18643 6.86758 9.18359Z" fill="#F2F1F1" fill-opacity="0.6"/>
</g>
</g>
</svg>
