<svg width="98" height="94" viewBox="0 0 98 94" fill="none" xmlns="http://www.w3.org/2000/svg">
<path fill-rule="evenodd" clip-rule="evenodd" d="M4.47658 65.0405C30.2884 56.0934 58.1224 53.4359 77.1252 55.5667C78.9731 55.7756 80.6258 55.9511 83.9612 55.1944L97.6273 13.737C97.9378 12.5017 98.0554 11.2252 97.9759 9.95351C97.6003 2.08395 91.0647 -0.243627 87.1103 0.0197012C75.5836 0.78547 26.986 18.0561 3.69231 34.3431C2.73236 34.9991 1.91456 35.8445 1.28842 36.8281C0.573266 37.9601 0.0383989 40.2756 0.0383989 41.3924V59.9222C-0.114849 61.8321 0.179629 63.2517 1.12015 64.2111C1.564 64.6246 2.10488 64.9176 2.69199 65.0626C3.27911 65.2077 3.89319 65.2001 4.47658 65.0405ZM16.7965 34.7457V46.4289H24.6392V49.7917H13.2087V34.7305L16.7965 34.7457ZM30.8112 34.7457V49.7917H27.2054V34.7305L30.8112 34.7457ZM48.7322 34.7457V49.7917H45.1234L37.5691 40.5873V49.7917H33.9453V34.7305H37.5691L45.1234 43.9137V34.7305L48.7322 34.7457ZM51.8753 34.7457H63.3178V38.1023H55.4751V40.6902H62.0227V43.8229H55.4901V46.4138H63.3328V49.7765H51.8903V34.7305L51.8753 34.7457ZM73.2459 34.7457C76.2778 34.7457 78.5615 37.1126 78.5615 40.3875C78.5615 42.5547 77.5068 44.3919 75.9022 45.2546L78.9791 49.7947H74.5139L72.2783 46.0355H69.6431V49.7765H66.0372V34.7305L73.2459 34.7457ZM72.7561 38.1023C73.3447 38.1268 73.9009 38.3804 74.3077 38.8096C74.7145 39.2389 74.94 39.8104 74.9369 40.4038C74.9338 40.9972 74.7023 41.5662 74.291 41.9911C73.8798 42.416 73.3209 42.6636 72.732 42.6818H69.637V38.1023H72.7561Z" fill="#001C32"/>
<path fill-rule="evenodd" clip-rule="evenodd" d="M13.7103 72.2435C13.8795 72.401 14.0841 72.5147 14.3066 72.5748C14.5291 72.6349 14.7627 72.6396 14.9874 72.5886C34.3116 68.5206 50.2615 66.9225 70.9259 67.2191C73.7204 67.2585 75.6616 67.0103 77.182 66.3414C78.5673 65.736 79.9525 64.9581 81.0523 62.8606C81.5932 61.8254 82.128 60.4574 82.714 58.9621L85.8931 49.3219C84.0902 47.6875 82.2723 48.2383 80.3281 48.5198L74.5137 49.7759C53.3715 53.2325 23.9449 59.7945 14.9964 64.4739C14.4969 64.7416 14.062 65.1167 13.7223 65.5726C13.3874 66.135 13.2098 66.7782 13.2085 67.434V70.594C13.2115 71.1327 13.3077 71.8985 13.7103 72.2435Z" fill="#001C32"/>
<path fill-rule="evenodd" clip-rule="evenodd" d="M2.65471 85.1487C2.98095 85.0584 3.3229 85.0414 3.6564 85.0988C3.9899 85.1562 4.3068 85.2868 4.5847 85.4812C5.42019 86.0366 5.39931 86.4069 5.39513 87.0802C5.39513 88.1868 5.54969 88.6413 5.09017 89.1841C4.71566 89.6391 4.18756 89.9388 3.60717 90.0257C0.545091 90.4465 -0.319644 85.9356 2.65471 85.1361V85.1487ZM5.38678 89.7774C5.44944 91.2839 5.23639 92.1633 4.07923 92.5757C3.4991 92.7678 2.87118 92.7545 2.29963 92.5378C1.8078 92.3622 1.3631 92.0742 1.00044 91.6962L0.565979 92.1633C1.27197 93.4257 4.71002 94.2042 5.87554 92.0203C6.37683 91.0777 6.21391 89.5839 6.21391 88.4183C6.21391 87.2527 6.21391 84.4629 6.21391 84.4629H5.43273L5.39513 85.3465C4.96655 84.8741 4.40437 84.5455 3.78451 84.4052C3.16464 84.2649 2.51694 84.3195 1.9289 84.5618C1.34085 84.804 0.840764 85.2222 0.49618 85.7599C0.151597 86.2975 -0.020886 86.9287 0.00201845 87.5683C-0.00320829 88.186 0.168104 88.7921 0.495505 89.3144C0.822905 89.8367 1.29257 90.253 1.84846 90.5138C2.49938 90.7905 3.22127 90.8495 3.90795 90.6821C4.78522 90.4549 4.87712 90.1309 5.39513 89.7774H5.38678Z" fill="#E7943E"/>
<path fill-rule="evenodd" clip-rule="evenodd" d="M36.3755 87.1138C36.4521 86.552 36.7235 86.0356 37.1417 85.6559C37.5599 85.2763 38.0979 85.0579 38.6606 85.0393C39.8136 85.0393 40.9039 86.0113 40.883 87.1432H36.3755V87.1138ZM41.3133 89.6385C41.1504 89.4281 40.9916 89.3103 40.8538 89.1378C40.5038 89.4432 40.1163 89.702 39.7008 89.9078C38.0507 90.5685 36.3129 89.3271 36.3588 87.8039H41.7269C41.7516 87.586 41.76 87.3666 41.7519 87.1474C41.6224 84.021 36.9771 83.1331 35.728 86.3858C35.4489 87.1036 35.4341 87.8982 35.6862 88.626C35.9383 89.3539 36.4406 89.9668 37.1024 90.3539C37.7796 90.7379 38.5671 90.8764 39.3334 90.7462C40.0997 90.616 40.7986 90.2251 41.3133 89.6385Z" fill="#E7943E"/>
<path fill-rule="evenodd" clip-rule="evenodd" d="M61.1602 87.1146H56.6527C56.7192 86.5578 56.9778 86.0421 57.3832 85.6576C57.7886 85.2731 58.3151 85.0441 58.8709 85.0107C60.0532 84.9602 61.1811 85.9448 61.1602 87.0894V87.1146ZM61.5779 89.6394C61.415 89.4332 61.2563 89.3112 61.1226 89.1428C60.8135 89.3616 59.8694 90.4641 58.3028 89.9844C57.8312 89.8472 57.4152 89.5624 57.1148 89.1714C56.8145 88.7803 56.6453 88.3032 56.6318 87.8089H61.9748C61.9947 87.647 62.0045 87.484 62.004 87.3208C61.996 86.6308 61.7537 85.9644 61.3175 85.4323C60.8812 84.9003 60.2773 84.5347 59.6062 84.3963C55.9091 83.6641 54.3509 88.6337 57.3545 90.3631C58.0346 90.7525 58.8273 90.8931 59.5985 90.7612C60.3697 90.6293 61.0719 90.233 61.5863 89.6394H61.5779Z" fill="#E7943E"/>
<path fill-rule="evenodd" clip-rule="evenodd" d="M81.3627 88.0062C81.2711 87.5257 81.3235 87.0286 81.5133 86.5782C81.703 86.1278 82.0215 85.7444 82.4282 85.4768C82.8349 85.2093 83.3114 85.0697 83.7972 85.0757C84.2829 85.0818 84.7558 85.2333 85.1558 85.5109C86.1709 86.2305 85.9161 86.8196 85.9245 88.2924C85.9245 90.3963 81.889 90.9476 81.3627 88.0062ZM85.9119 89.7862V90.6278H86.7057C86.7057 88.5743 86.7057 86.5194 86.7057 84.4632H85.8994C85.8994 84.7535 85.8994 85.0439 85.8994 85.3342C83.3094 82.961 80.4896 85.0986 80.5021 87.5602C80.4924 88.0462 80.5946 88.5279 80.8007 88.9675C81.0068 89.4071 81.3111 89.7927 81.6899 90.0939C82.0687 90.3951 82.5116 90.6039 82.9839 90.7038C83.4562 90.8038 83.9451 90.7921 84.4122 90.6698C84.9906 90.5379 85.5143 90.2293 85.9119 89.7862Z" fill="#E7943E"/>
<path fill-rule="evenodd" clip-rule="evenodd" d="M27.3019 85.1407C27.6136 85.0647 27.9372 85.0521 28.2538 85.1035C28.5704 85.155 28.8737 85.2694 29.146 85.4402C29.4182 85.611 29.6539 85.8347 29.8394 86.0983C30.0248 86.3619 30.1563 86.66 30.2261 86.9753C30.3774 87.6165 30.2738 88.292 29.9374 88.8573C29.6009 89.4226 29.0584 89.833 28.4256 90.0008C25.2716 90.7287 24.1938 85.9444 27.2977 85.1407H27.3019ZM27.1431 84.4211C22.9657 85.3511 24.3693 91.6671 28.5802 90.7329C32.695 89.7946 31.4166 83.4659 27.1431 84.4211Z" fill="#E7943E"/>
<path fill-rule="evenodd" clip-rule="evenodd" d="M13.9756 88.1498C13.1945 91.352 8.54493 90.2327 9.24674 86.9757C9.3189 86.6582 9.45301 86.3582 9.6413 86.0933C9.82959 85.8285 10.0683 85.6039 10.3435 85.4328C10.6187 85.2617 10.925 85.1474 11.2445 85.0966C11.5639 85.0458 11.8902 85.0595 12.2044 85.1369C12.8326 85.3053 13.3701 85.7153 13.7013 86.2787C14.0325 86.8421 14.131 87.5139 13.9756 88.1498ZM10.8885 84.4215C6.7319 85.3641 8.08958 91.6255 12.3255 90.7334C12.7404 90.6473 13.1341 90.4785 13.4833 90.237C13.8325 89.9954 14.1303 89.686 14.3591 89.3269C14.588 88.9679 14.7432 88.5663 14.8158 88.1459C14.8884 87.7256 14.8769 87.2948 14.7819 86.879C14.6909 86.4577 14.5172 86.0589 14.2711 85.7062C14.025 85.3535 13.7113 85.0538 13.3486 84.8249C12.9859 84.596 12.5814 84.4424 12.159 84.3731C11.7365 84.3038 11.3045 84.3203 10.8885 84.4215Z" fill="#E7943E"/>
<path fill-rule="evenodd" clip-rule="evenodd" d="M64.9618 85.5869V84.4844H64.1597V90.6363H64.9576C64.991 89.4076 64.9576 88.1537 64.9576 86.9292C64.9576 86.0623 65.9936 85.1198 66.8416 85.0651C67.087 85.038 67.3354 85.0649 67.5695 85.1438C67.8036 85.2227 68.018 85.3518 68.1978 85.5222C68.3777 85.6925 68.5187 85.9001 68.6113 86.1307C68.7039 86.3612 68.7457 86.6092 68.734 86.8576C68.7758 88.12 68.734 90.6448 68.734 90.6448H69.5235C69.5235 90.6448 69.5235 88.646 69.5235 87.6529C69.5235 86.5631 69.5779 85.8772 68.9512 85.1703C68.5572 84.7092 68.0037 84.4164 67.4031 84.3515C66.8026 84.2867 66.2 84.4545 65.7179 84.821C65.4266 85.0336 65.1712 85.2922 64.9618 85.5869Z" fill="#E7943E"/>
<path fill-rule="evenodd" clip-rule="evenodd" d="M50.1028 89.2179L49.6851 89.7566C50.1054 90.2111 50.6479 90.5326 51.2465 90.6821C51.8451 90.8315 52.4739 90.8023 53.0563 90.5981C54.2594 90.1395 54.7022 88.5741 53.616 87.7241C52.7805 87.0677 50.8422 87.1224 50.6918 86.1167C50.5999 85.4771 51.2391 85.0816 51.8156 85.0269C52.1221 85.0039 52.43 85.0476 52.7184 85.1551C53.0067 85.2625 53.2687 85.4312 53.4865 85.6496L53.9043 85.1447C53.5702 84.7306 53.0923 84.4599 52.5675 84.3873C51.2558 84.1558 49.614 84.8081 49.9148 86.3355C49.987 86.6063 50.1242 86.855 50.3143 87.0598C50.5045 87.2645 50.7417 87.419 51.0051 87.5095C51.4814 87.7157 54.1215 88.0313 53.2818 89.483C53.0145 89.9417 52.3336 90.1563 51.6109 90.0427C51.0213 89.9743 50.4809 89.6787 50.1028 89.2179Z" fill="#E7943E"/>
<path fill-rule="evenodd" clip-rule="evenodd" d="M43.7693 89.2565L43.3516 89.7825C43.7622 90.2419 44.2996 90.5674 44.895 90.7173C45.4904 90.8672 46.1166 90.8348 46.6935 90.6241C46.9771 90.5348 47.2314 90.3699 47.4295 90.1468C47.6276 89.9238 47.762 89.6509 47.8185 89.3571C47.875 89.0633 47.8516 88.7596 47.7506 88.4781C47.6496 88.1967 47.4749 87.948 47.245 87.7585C46.4095 87.0473 44.4837 87.203 44.3207 86.1511C44.2205 85.4904 44.8513 85.1075 45.4487 85.0528C46.0635 85.0375 46.661 85.2587 47.1196 85.6714L47.5374 85.1706C46.9901 84.4174 45.2105 84.0008 44.2247 84.7204C43.0759 85.5619 43.3641 86.9758 44.5965 87.5228C45.1186 87.7585 47.7337 88.0236 46.9191 89.5006C46.5014 90.2159 45.2106 90.2664 44.4127 89.7741C44.186 89.6176 43.9709 89.4446 43.7693 89.2565Z" fill="#E7943E"/>
<path fill-rule="evenodd" clip-rule="evenodd" d="M20.2459 82.7636V84.4468H19.0971C19.0971 84.6782 19.0971 84.9475 19.0762 85.1832H20.2459V88.4948C20.3211 89.9676 20.8057 91.1416 22.9278 90.7292V90.0601C21.5868 89.976 21.0814 90.0896 21.0772 88.5621C21.0772 87.6448 21.0772 85.1958 21.0772 85.1958H22.8526C22.8526 84.9644 22.8526 84.6908 22.8526 84.4594C22.2636 84.4594 21.6704 84.4594 21.0814 84.4594V82.6963L20.2459 82.7636Z" fill="#E7943E"/>
<path fill-rule="evenodd" clip-rule="evenodd" d="M72.5693 82.7587V84.4755H71.3996L71.3662 85.1909H72.5484C72.5484 85.1909 72.5484 87.5599 72.5484 88.6119C72.5902 90.0131 73.0289 91.0272 75.2137 90.7495V90.0552C73.8685 90.1099 73.3463 89.9753 73.338 88.5782C73.338 87.602 73.338 85.2119 73.338 85.2119H75.1259V84.4966H73.3338V82.7461L72.5693 82.7587Z" fill="#E7943E"/>
<path fill-rule="evenodd" clip-rule="evenodd" d="M89.5376 90.6233L89.805 90.6486L90.089 90.6444L90.348 90.6233L90.3522 81.9761L89.5376 81.9551V90.6233Z" fill="#E7943E"/>
<path fill-rule="evenodd" clip-rule="evenodd" d="M77.4521 90.6153L78.2626 90.6447V84.4844H77.4689L77.4521 90.6153Z" fill="#E7943E"/>
<path fill-rule="evenodd" clip-rule="evenodd" d="M77.7239 82.1657C77.6494 82.1816 77.5787 82.2126 77.5164 82.2567C77.454 82.3009 77.4012 82.3574 77.3611 82.4227C77.321 82.4881 77.2945 82.5609 77.2831 82.6368C77.2718 82.7128 77.2759 82.7903 77.2951 82.8646C77.3143 82.9389 77.3483 83.0085 77.395 83.0693C77.4417 83.13 77.5001 83.1805 77.5668 83.2179C77.6334 83.2552 77.7069 83.2785 77.7827 83.2864C77.8585 83.2943 77.9352 83.2867 78.008 83.2639C78.1466 83.2206 78.2632 83.1252 78.3337 82.9974C78.4042 82.8697 78.4231 82.7196 78.3865 82.5782C78.35 82.4368 78.2607 82.315 78.1373 82.2382C78.0139 82.1613 77.8659 82.1354 77.7239 82.1657Z" fill="#E7943E"/>
</svg>
