<svg width="71" height="68" viewBox="0 0 71 68" fill="none" xmlns="http://www.w3.org/2000/svg">
<path fill-rule="evenodd" clip-rule="evenodd" d="M3.22735 46.9138C21.8361 40.4602 41.9028 38.5434 55.6026 40.0803C56.9349 40.231 58.1264 40.3576 60.531 39.8118L70.3835 9.90848C70.6074 9.01748 70.6921 8.09678 70.6348 7.17948C70.364 1.50315 65.6522 -0.175728 62.8013 0.0142105C54.4913 0.566561 19.4553 13.0239 2.66194 24.7717C1.96987 25.2449 1.38029 25.8546 0.928876 26.5641C0.41329 27.3806 0.0276833 29.0508 0.0276833 29.8564V43.222C-0.0827994 44.5996 0.129502 45.6235 0.807562 46.3156C1.12755 46.6138 1.51749 46.8251 1.94077 46.9297C2.36404 47.0344 2.80676 47.0289 3.22735 46.9138ZM12.1093 25.0621V33.4892H17.7634V35.9148H9.5227V25.0512L12.1093 25.0621ZM22.213 25.0621V35.9148H19.6135V25.0512L22.213 25.0621ZM35.133 25.0621V35.9148H32.5313L27.0851 29.2757V35.9148H24.4725V25.0512H27.0851L32.5313 31.675V25.0512L35.133 25.0621ZM37.399 25.0621H45.6484V27.4833H39.9943V29.3499H44.7147V31.6095H40.0051V33.4783H45.6592V35.9039H37.4098V25.0512L37.399 25.0621ZM52.8059 25.0621C54.9917 25.0621 56.6381 26.7694 56.6381 29.1316C56.6381 30.6947 55.8778 32.02 54.721 32.6422L56.9393 35.917H53.7201L52.1084 33.2054H50.2085V35.9039H47.6089V25.0512L52.8059 25.0621ZM52.4528 27.4833C52.8772 27.5009 53.2782 27.6838 53.5714 27.9934C53.8647 28.303 54.0273 28.7152 54.0251 29.1433C54.0228 29.5713 53.8559 29.9818 53.5594 30.2882C53.2629 30.5947 52.86 30.7733 52.4355 30.7864H50.2042V27.4833H52.4528Z" fill="#001C32"/>
<path fill-rule="evenodd" clip-rule="evenodd" d="M9.88424 52.1098C10.0062 52.2234 10.1537 52.3053 10.3141 52.3487C10.4745 52.3921 10.6429 52.3955 10.8049 52.3587C24.7366 49.4245 36.2354 48.2717 51.1333 48.4857C53.148 48.5141 54.5474 48.335 55.6436 47.8525C56.6423 47.4159 57.6409 46.8548 58.4338 45.3419C58.8237 44.5952 59.2093 43.6084 59.6318 42.5299L61.9238 35.5764C60.624 34.3975 59.3133 34.7948 57.9117 34.9979L53.7199 35.9039C38.4776 38.3971 17.2627 43.1303 10.8114 46.5055C10.4513 46.6987 10.1378 46.9692 9.8929 47.298C9.65141 47.7037 9.52339 48.1676 9.52246 48.6407V50.92C9.52463 51.3086 9.59395 51.8609 9.88424 52.1098Z" fill="#001C32"/>
<path fill-rule="evenodd" clip-rule="evenodd" d="M1.91389 61.4184C2.14909 61.3532 2.39561 61.3409 2.63604 61.3823C2.87648 61.4238 3.10494 61.5179 3.3053 61.6581C3.90764 62.0588 3.89258 62.3259 3.88957 62.8115C3.88957 63.6097 4.001 63.9375 3.66971 64.3291C3.39971 64.6573 3.01898 64.8734 2.60056 64.9361C0.392978 65.2396 -0.230444 61.9859 1.91389 61.4093V61.4184ZM3.88355 64.757C3.92872 65.8436 3.77512 66.478 2.94088 66.7754C2.52264 66.914 2.06995 66.9044 1.65789 66.7481C1.30332 66.6214 0.982715 66.4137 0.721257 66.1411L0.408037 66.478C0.917015 67.3885 3.39565 67.95 4.23591 66.3748C4.59732 65.6949 4.47986 64.6174 4.47986 63.7767C4.47986 62.9359 4.47986 60.9236 4.47986 60.9236H3.91667L3.88957 61.561C3.58059 61.2203 3.17529 60.9833 2.7284 60.882C2.28152 60.7808 1.81457 60.8202 1.39062 60.995C0.966671 61.1697 0.60614 61.4714 0.357716 61.8592C0.109293 62.247 -0.0150575 62.7023 0.00145518 63.1636C-0.00231299 63.6091 0.121193 64.0463 0.357229 64.423C0.593266 64.7998 0.931868 65.1001 1.33263 65.2882C1.8019 65.4878 2.32234 65.5303 2.8174 65.4096C3.44986 65.2457 3.51612 65.012 3.88957 64.757H3.88355Z" fill="#E7943E"/>
<path fill-rule="evenodd" clip-rule="evenodd" d="M26.2245 62.8354C26.2798 62.4302 26.4754 62.0577 26.7769 61.7839C27.0784 61.51 27.4663 61.3525 27.872 61.3391C28.7032 61.3391 29.4892 62.0402 29.4742 62.8567H26.2245V62.8354ZM29.7844 64.6565C29.6669 64.5048 29.5525 64.4198 29.4531 64.2953C29.2008 64.5156 28.9214 64.7023 28.6219 64.8508C27.4322 65.3273 26.1794 64.4319 26.2125 63.3332H30.0825C30.1004 63.176 30.1064 63.0178 30.1006 62.8597C30.0073 60.6046 26.6582 59.9642 25.7577 62.3103C25.5565 62.8281 25.5458 63.4012 25.7276 63.9262C25.9093 64.4512 26.2715 64.8933 26.7486 65.1725C27.2368 65.4495 27.8045 65.5494 28.357 65.4555C28.9095 65.3616 29.4133 65.0796 29.7844 64.6565Z" fill="#E7943E"/>
<path fill-rule="evenodd" clip-rule="evenodd" d="M44.0933 62.8357H40.8437C40.8916 62.434 41.078 62.0621 41.3703 61.7847C41.6625 61.5074 42.0422 61.3422 42.4429 61.3181C43.2952 61.2817 44.1084 61.9919 44.0933 62.8175V62.8357ZM44.3945 64.6568C44.277 64.5081 44.1626 64.4201 44.0662 64.2986C43.8433 64.4565 43.1627 65.2517 42.0333 64.9057C41.6933 64.8067 41.3934 64.6013 41.1768 64.3192C40.9603 64.0372 40.8383 63.693 40.8286 63.3365H44.6806C44.6949 63.2197 44.702 63.1021 44.7017 62.9844C44.6959 62.4867 44.5212 62.006 44.2067 61.6222C43.8922 61.2385 43.4568 60.9748 42.973 60.875C40.3076 60.3469 39.1842 63.9314 41.3496 65.1788C41.8399 65.4597 42.4114 65.5611 42.9674 65.466C43.5234 65.3708 44.0297 65.085 44.4005 64.6568H44.3945Z" fill="#E7943E"/>
<path fill-rule="evenodd" clip-rule="evenodd" d="M58.658 63.4789C58.592 63.1323 58.6298 62.7738 58.7666 62.4489C58.9034 62.124 59.133 61.8475 59.4262 61.6545C59.7194 61.4615 60.0629 61.3608 60.4131 61.3652C60.7633 61.3696 61.1042 61.4788 61.3926 61.6791C62.1245 62.1981 61.9408 62.623 61.9468 63.6853C61.9468 65.2029 59.0375 65.6005 58.658 63.4789ZM61.9377 64.7628V65.3699H62.51C62.51 63.8887 62.51 62.4065 62.51 60.9233H61.9287C61.9287 61.1328 61.9287 61.3422 61.9287 61.5516C60.0614 59.8398 58.0285 61.3817 58.0376 63.1572C58.0306 63.5078 58.1042 63.8553 58.2528 64.1723C58.4014 64.4894 58.6208 64.7675 58.8939 64.9848C59.167 65.2021 59.4863 65.3526 59.8268 65.4247C60.1673 65.4968 60.5198 65.4884 60.8565 65.4002C61.2735 65.3051 61.6511 65.0825 61.9377 64.7628Z" fill="#E7943E"/>
<path fill-rule="evenodd" clip-rule="evenodd" d="M19.683 61.4119C19.9077 61.3571 20.141 61.348 20.3693 61.3851C20.5976 61.4222 20.8162 61.5047 21.0125 61.6279C21.2087 61.7511 21.3787 61.9125 21.5124 62.1026C21.6461 62.2927 21.7408 62.5078 21.7912 62.7352C21.9003 63.1977 21.8256 63.6849 21.583 64.0927C21.3405 64.5004 20.9493 64.7965 20.4931 64.9175C18.2193 65.4426 17.4423 61.9916 19.68 61.4119H19.683ZM19.5685 60.8929C16.5568 61.5636 17.5688 66.1194 20.6046 65.4456C23.5711 64.7688 22.6495 60.2039 19.5685 60.8929Z" fill="#E7943E"/>
<path fill-rule="evenodd" clip-rule="evenodd" d="M10.0755 63.5825C9.51236 65.8923 6.16032 65.085 6.66629 62.7357C6.71831 62.5067 6.815 62.2903 6.95074 62.0993C7.08649 61.9082 7.25857 61.7462 7.45699 61.6228C7.65541 61.4994 7.8762 61.417 8.10652 61.3803C8.33684 61.3437 8.57208 61.3536 8.79858 61.4094C9.25146 61.5308 9.63895 61.8266 9.87775 62.233C10.1165 62.6393 10.1876 63.1239 10.0755 63.5825ZM7.84989 60.8934C4.85323 61.5733 5.83204 66.0896 8.88592 65.4461C9.18503 65.384 9.46882 65.2623 9.72058 65.0881C9.97235 64.9138 10.187 64.6907 10.352 64.4317C10.517 64.1727 10.6289 63.883 10.6813 63.5798C10.7336 63.2766 10.7253 62.9659 10.6568 62.6659C10.5912 62.362 10.466 62.0744 10.2886 61.82C10.1111 61.5656 9.885 61.3495 9.62351 61.1843C9.36202 61.0192 9.07041 60.9084 8.76584 60.8584C8.46126 60.8085 8.14985 60.8204 7.84989 60.8934Z" fill="#E7943E"/>
<path fill-rule="evenodd" clip-rule="evenodd" d="M46.8331 61.7339V60.9387H46.2549V65.3761H46.8301C46.8542 64.4898 46.8301 63.5853 46.8301 62.7021C46.8301 62.0769 47.577 61.397 48.1884 61.3575C48.3653 61.338 48.5444 61.3574 48.7132 61.4143C48.882 61.4712 49.0365 61.5643 49.1662 61.6872C49.2958 61.8101 49.3975 61.9599 49.4642 62.1261C49.531 62.2924 49.5612 62.4713 49.5527 62.6505C49.5828 63.5611 49.5527 65.3822 49.5527 65.3822H50.1219C50.1219 65.3822 50.1219 63.9405 50.1219 63.2242C50.1219 62.438 50.1611 61.9433 49.7093 61.4334C49.4252 61.1008 49.0262 60.8896 48.5932 60.8429C48.1602 60.7961 47.7258 60.9171 47.3783 61.1815C47.1682 61.3349 46.9842 61.5214 46.8331 61.7339Z" fill="#E7943E"/>
<path fill-rule="evenodd" clip-rule="evenodd" d="M36.1215 64.3531L35.8203 64.7416C36.1234 65.0695 36.5145 65.3014 36.946 65.4092C37.3775 65.517 37.8309 65.4959 38.2508 65.3486C39.1181 65.0178 39.4374 63.8887 38.6543 63.2756C38.052 62.8021 36.6545 62.8416 36.5461 62.1162C36.4799 61.6548 36.9407 61.3695 37.3563 61.3301C37.5773 61.3135 37.7993 61.345 38.0071 61.4225C38.215 61.5 38.4039 61.6217 38.561 61.7793L38.8621 61.4151C38.6212 61.1164 38.2767 60.9211 37.8984 60.8687C36.9527 60.7018 35.7691 61.1723 35.986 62.274C36.038 62.4693 36.1369 62.6487 36.274 62.7964C36.411 62.9441 36.5821 63.0555 36.772 63.1208C37.1153 63.2696 39.0187 63.4972 38.4134 64.5443C38.2206 64.8752 37.7297 65.03 37.2087 64.948C36.7837 64.8987 36.3941 64.6855 36.1215 64.3531Z" fill="#E7943E"/>
<path fill-rule="evenodd" clip-rule="evenodd" d="M31.5551 64.3806L31.2539 64.76C31.5499 65.0914 31.9374 65.3261 32.3666 65.4343C32.7959 65.5424 33.2473 65.519 33.6633 65.367C33.8677 65.3026 34.0511 65.1837 34.1939 65.0228C34.3366 64.8619 34.4335 64.6651 34.4743 64.4532C34.5151 64.2412 34.4982 64.0222 34.4254 63.8191C34.3526 63.6161 34.2266 63.4368 34.0608 63.3001C33.4585 62.7871 32.0701 62.8994 31.9526 62.1406C31.8803 61.6641 32.3351 61.3879 32.7658 61.3485C33.209 61.3374 33.6398 61.497 33.9705 61.7946L34.2716 61.4334C33.8771 60.8902 32.5941 60.5897 31.8834 61.1087C31.0551 61.7157 31.263 62.7355 32.1514 63.1301C32.5279 63.3001 34.4132 63.4913 33.8259 64.5566C33.5247 65.0726 32.5941 65.109 32.0189 64.7539C31.8555 64.6411 31.7004 64.5163 31.5551 64.3806Z" fill="#E7943E"/>
<path fill-rule="evenodd" clip-rule="evenodd" d="M14.5962 59.697V60.9111H13.768C13.768 61.078 13.768 61.2723 13.7529 61.4422H14.5962V63.8309C14.6504 64.8932 14.9998 65.74 16.5297 65.4426V64.96C15.563 64.8993 15.1986 64.9812 15.1955 63.8795C15.1955 63.2178 15.1955 61.4513 15.1955 61.4513H16.4755C16.4755 61.2844 16.4755 61.0871 16.4755 60.9202C16.0509 60.9202 15.6232 60.9202 15.1985 60.9202V59.6484L14.5962 59.697Z" fill="#E7943E"/>
<path fill-rule="evenodd" clip-rule="evenodd" d="M52.3185 59.6947V60.933H51.4753L51.4512 61.449H52.3035C52.3035 61.449 52.3035 63.1578 52.3035 63.9166C52.3336 64.9273 52.6498 65.6588 54.225 65.4584V64.9576C53.2552 64.9971 52.8787 64.9 52.8727 63.8923C52.8727 63.1881 52.8727 61.4642 52.8727 61.4642H54.1617V60.9482H52.8697V59.6855L52.3185 59.6947Z" fill="#E7943E"/>
<path fill-rule="evenodd" clip-rule="evenodd" d="M64.5518 65.3667L64.7445 65.3849L64.9493 65.3819L65.136 65.3667L65.139 59.1294L64.5518 59.1143V65.3667Z" fill="#E7943E"/>
<path fill-rule="evenodd" clip-rule="evenodd" d="M55.8389 65.3607L56.4231 65.382V60.9385H55.8509L55.8389 65.3607Z" fill="#E7943E"/>
<path fill-rule="evenodd" clip-rule="evenodd" d="M56.0342 59.2667C55.9805 59.2782 55.9296 59.3005 55.8846 59.3324C55.8396 59.3643 55.8016 59.405 55.7726 59.4521C55.7437 59.4993 55.7246 59.5518 55.7164 59.6066C55.7083 59.6614 55.7112 59.7173 55.7251 59.7709C55.7389 59.8245 55.7634 59.8747 55.7971 59.9185C55.8307 59.9623 55.8729 59.9987 55.9209 60.0257C55.969 60.0526 56.0219 60.0694 56.0766 60.0751C56.1313 60.0808 56.1865 60.0753 56.239 60.0589C56.3389 60.0276 56.423 59.9588 56.4738 59.8667C56.5247 59.7746 56.5383 59.6662 56.5119 59.5643C56.4856 59.4623 56.4212 59.3744 56.3323 59.319C56.2433 59.2636 56.1366 59.2449 56.0342 59.2667Z" fill="#E7943E"/>
</svg>
