<svg width="91" height="30" viewBox="0 0 91 30" fill="none" xmlns="http://www.w3.org/2000/svg">
<path d="M27.8232 26.5776H5.03227C4.8915 26.5763 4.75684 26.5191 4.65729 26.4185C4.55775 26.3178 4.50126 26.1815 4.5 26.0392V2.96907C4.50126 2.82667 4.55775 2.69047 4.65729 2.58977C4.75684 2.48908 4.8915 2.43194 5.03227 2.43066H27.8232C27.964 2.43194 28.0986 2.48908 28.1982 2.58977C28.2977 2.69047 28.3542 2.82667 28.3555 2.96907V26.0228C28.3625 26.1623 28.3148 26.2989 28.2226 26.4028C28.1304 26.5067 28.0013 26.5696 27.8635 26.5776H27.8232ZM5.58067 25.4844H27.2909V3.50749H5.58067V25.4844Z" fill="black"/>
<path d="M44.1143 13.0358V5.10645H47.3563C48.9208 5.10645 50.5177 5.67749 50.5177 7.78218C50.5177 9.08742 49.8886 9.8053 49.0337 10.1642L51.1628 13.0358H48.8724L47.0337 10.4579H46.1466V13.0358H44.1143ZM46.1466 8.76111H47.4531C48.0337 8.76111 48.4369 8.45111 48.4369 7.84744C48.4369 7.24377 48.0337 6.93378 47.4531 6.93378H46.1466V8.76111Z" fill="black"/>
<path d="M58.0495 5.10645V6.93378H54.5333V8.14112H57.7108V9.93582H54.5333V11.2247H58.114V13.0358H52.501V5.10645H58.0495Z" fill="black"/>
<path d="M59.1309 13.0358L62.1632 5.10645H64.3568L67.3891 13.0358H65.2923L64.8568 11.7958H61.6632L61.2277 13.0358H59.1309ZM62.26 10.099H64.2439L63.4536 7.81481C63.3641 7.55514 63.2993 7.28745 63.26 7.01535C63.2247 7.28823 63.1598 7.55634 63.0664 7.81481L62.26 10.099Z" fill="black"/>
<path d="M70.712 5.10645V11.1758H74.2444V13.0358H68.6797V5.10645H70.712Z" fill="black"/>
<path d="M77.6954 5.10645V11.1758H81.2278V13.0358H75.6631V5.10645H77.6954Z" fill="black"/>
<path d="M83.6149 13.0358V10.3274L80.5986 5.10645H82.9213L84.631 8.38585L86.3246 5.10645H88.6473L85.631 10.3274V13.0358H83.6149Z" fill="black"/>
<path d="M35.0812 15.9561C36.7748 15.9561 37.7748 16.5924 37.7748 17.9629C37.7748 18.8276 37.3715 19.4149 36.6296 19.676C37.4522 19.9207 38.0812 20.5407 38.0812 21.6338C38.0812 23.4285 36.4038 23.8691 34.936 23.8691H31.5811V15.9561H35.0812ZM35.0166 20.5896H33.6295V22.2375H35.0166C35.6296 22.2375 36.0328 22.0417 36.0328 21.4054C36.0328 20.7691 35.6296 20.5896 35.0166 20.5896ZM34.9037 17.6039H33.6456V19.0723L34.9037 19.0886C35.436 19.0886 35.7586 18.8113 35.7586 18.3544C35.7586 17.8976 35.436 17.6039 34.9037 17.6039Z" fill="black"/>
<path d="M46.5499 15.9561V20.867C46.5499 23.2491 44.7918 24.0648 43.0821 24.0648C41.3724 24.0648 39.6143 23.2654 39.6143 20.867V15.9561H41.6466V20.7528C41.6466 21.8133 42.2111 22.1886 43.0821 22.1886C43.9531 22.1886 44.5176 21.8133 44.5176 20.7528V15.9561H46.5499Z" fill="black"/>
<path d="M50.5177 15.9561H48.4854V23.8854H50.5177V15.9561Z" fill="black"/>
<path d="M54.5499 15.9561V22.0091H58.0823V23.8854H52.5176V15.9561H54.5499Z" fill="black"/>
<path d="M62.5827 15.9561C65.3408 15.9561 66.6151 17.6039 66.6151 19.9207C66.6151 22.2375 65.3408 23.8854 62.5827 23.8854H59.502V15.9561H62.5827ZM62.5827 17.7671H61.5504V22.0744H62.5827C63.8085 22.0744 64.5182 21.4054 64.5182 19.9207C64.5182 18.436 63.7924 17.7671 62.5827 17.7671Z" fill="black"/>
<path d="M70.2765 15.9561H68.2441V23.8854H70.2765V15.9561Z" fill="black"/>
<path d="M72.292 23.8854V15.9561H74.2275L77.2437 20.5081C77.2115 20.1328 77.1953 19.6433 77.1953 19.2028V15.9561H79.2276V23.8854H77.2921L74.2759 19.3497C74.3082 19.7249 74.3243 20.2144 74.3243 20.6549V23.9017L72.292 23.8854Z" fill="black"/>
<path d="M85.1156 15.793C85.9353 15.7963 86.7464 15.9626 87.5027 16.2824V18.2566C86.8713 17.8353 86.1301 17.6138 85.3737 17.6203C84.1317 17.6203 82.9542 18.2729 82.9542 19.9045C82.9542 21.8623 84.3575 22.2376 85.2285 22.2376C85.4072 22.2426 85.5859 22.2262 85.7608 22.1886V19.5129H87.6802V23.5102C86.875 23.8607 86.0083 24.0438 85.1317 24.0486C82.9381 24.0486 80.8574 22.7923 80.8574 19.9208C80.8574 16.9677 82.9704 15.793 85.1156 15.793Z" fill="black"/>
<path d="M20.2905 5.10645H31.1295C31.2568 5.10975 31.378 5.16238 31.4681 5.25346C31.5581 5.34455 31.6102 5.46714 31.6134 5.59591V8.51638C31.6134 8.64619 31.5624 8.77069 31.4717 8.86248C31.3809 8.95427 31.2579 9.00584 31.1295 9.00584H20.2905C20.1622 9.00584 20.0391 8.95427 19.9484 8.86248C19.8576 8.77069 19.8066 8.64619 19.8066 8.51638V5.61223C19.8093 5.48171 19.8607 5.35704 19.9504 5.26324C20.0402 5.16943 20.1617 5.11342 20.2905 5.10645Z" fill="#FFC700"/>
<path d="M14.1138 10.0664H24.9528C25.0801 10.0697 25.2013 10.1223 25.2913 10.2134C25.3814 10.3045 25.4334 10.4271 25.4367 10.5559V13.4763C25.4367 13.6062 25.3857 13.7306 25.2949 13.8224C25.2042 13.9142 25.0811 13.9658 24.9528 13.9658H14.1138C13.9865 13.9625 13.8653 13.9099 13.7752 13.8188C13.6852 13.7277 13.6331 13.6051 13.6299 13.4763V10.5559C13.6299 10.4261 13.6809 10.3016 13.7716 10.2098C13.8624 10.118 13.9854 10.0664 14.1138 10.0664Z" fill="#FFC700"/>
<path d="M1.7417 19.9697H12.5807C12.708 19.973 12.8292 20.0257 12.9192 20.1167C13.0093 20.2078 13.0613 20.3304 13.0646 20.4592V23.3796C13.0646 23.5095 13.0136 23.634 12.9229 23.7257C12.8321 23.8175 12.709 23.8691 12.5807 23.8691H1.7417C1.61439 23.8658 1.4932 23.8132 1.40315 23.7221C1.31311 23.631 1.26108 23.5084 1.25781 23.3796V20.4592C1.25781 20.3294 1.30879 20.2049 1.39954 20.1131C1.49028 20.0213 1.61336 19.9697 1.7417 19.9697Z" fill="#FFC700"/>
<path d="M7.91943 15.0107H18.7584C18.8857 15.014 19.0069 15.0667 19.097 15.1578C19.187 15.2488 19.2391 15.3714 19.2423 15.5002V18.437C19.2423 18.5668 19.1913 18.6913 19.1006 18.7831C19.0098 18.8749 18.8868 18.9265 18.7584 18.9265H7.91943C7.79213 18.9231 7.67094 18.8705 7.58089 18.7794C7.49084 18.6883 7.43881 18.5658 7.43555 18.437V15.5165C7.43548 15.3852 7.48594 15.2589 7.57625 15.1645C7.66656 15.0701 7.78963 15.015 7.91943 15.0107Z" fill="#FFC700"/>
</svg>
