<svg width="69" height="29" viewBox="0 0 69 29" fill="none" xmlns="http://www.w3.org/2000/svg">
<path d="M31.2232 28.7796H11.0211L0 18.7302V0.301758H31.2232V28.7796Z" fill="#FFC700"/>
<path d="M5.50981 23.752H0.00195312V28.7758H5.50981V23.752Z" fill="black"/>
<path d="M11.0211 28.7798L0 18.7305H11.0211V28.7798Z" fill="black"/>
<path d="M11.5738 12.9302C11.5738 11.9199 12.5253 11.0078 14.0979 11.0078C15.3241 11.0078 16.1068 11.4008 16.552 11.8757L15.3869 12.9171C15.2226 12.7379 15.0184 12.5925 14.7878 12.4906C14.5572 12.3886 14.3056 12.3326 14.0495 12.326C13.6401 12.326 13.378 12.5241 13.378 12.8173C13.378 13.749 16.5772 13.4084 16.5772 15.4749C16.5772 16.2937 15.8591 17.4072 13.8933 17.4072C12.4014 17.4072 11.4966 16.8357 11.125 16.4738L12.2022 15.3275C12.4255 15.5607 12.6989 15.7495 13.0056 15.8822C13.3123 16.0148 13.6456 16.0886 13.9848 16.0988C14.5503 16.0988 14.7622 15.8548 14.7622 15.5666C14.7765 14.6971 11.5738 14.9935 11.5738 12.9302Z" fill="black"/>
<path d="M18.7427 8.51374C19.0198 8.51068 19.287 8.60783 19.4859 8.78397C19.6847 8.96011 19.799 9.20089 19.8037 9.45367V9.50116C19.7991 9.68939 19.7339 9.87223 19.6164 10.027C19.4988 10.1818 19.3341 10.3016 19.1425 10.3717C18.9509 10.4418 18.741 10.4591 18.5387 10.4213C18.3365 10.3835 18.1509 10.2924 18.005 10.1593C17.859 10.0262 17.7591 9.85688 17.7177 9.67243C17.6763 9.48798 17.6952 9.2965 17.7721 9.12176C17.8489 8.94702 17.9803 8.79671 18.15 8.68949C18.3197 8.58228 18.5202 8.52287 18.7265 8.51866L18.7427 8.51374ZM17.8558 11.1174H19.6744V17.3186H17.8558V11.1174Z" fill="black"/>
<path d="M28.74 10.975C30.0775 10.975 30.8369 11.6202 30.8369 13.0465V17.3187H29.0201V13.3281C29.0201 12.6043 28.6108 12.3636 28.1404 12.3636C27.8968 12.37 27.6604 12.4402 27.4595 12.566C27.2586 12.6917 27.1017 12.8677 27.0076 13.0727V17.3138H25.189V13.4706C25.189 12.7468 24.8653 12.3849 24.2178 12.3849C23.9838 12.4018 23.7602 12.4803 23.5741 12.6108C23.388 12.7413 23.2474 12.9182 23.1693 13.1201V17.3187H21.3525V11.1175H22.8444L23.1478 11.7086H23.1963C23.4151 11.4704 23.6904 11.2806 24.0014 11.1535C24.3124 11.0264 24.6509 10.9654 24.9915 10.975C26.0274 10.975 26.4475 11.3696 26.6898 11.8069H26.7383C26.9786 11.5363 27.2844 11.3203 27.6318 11.176C27.9792 11.0316 28.3585 10.9628 28.74 10.975Z" fill="black"/>
<path d="M35.3075 17.3533C34.9551 17.3566 34.6034 17.3236 34.2591 17.255V19.4509H32.4639V11.1226H33.8013L34.1855 11.6613H34.2358C34.4373 11.4535 34.6865 11.2886 34.9658 11.1785C35.245 11.0684 35.5474 11.0158 35.8515 11.0243C37.3451 11.0243 38.3648 12.0478 38.3648 13.9866C38.363 16.2463 36.943 17.3533 35.3075 17.3533ZM35.0885 16.0171C35.97 16.0171 36.5103 15.5553 36.5103 14.1077C36.5103 12.8747 35.943 12.3474 35.2357 12.3474C35.0386 12.3462 34.8442 12.3893 34.6698 12.473C34.4954 12.5567 34.3463 12.6784 34.2358 12.8272V15.8402C34.5014 15.9581 34.7932 16.0186 35.0885 16.0171Z" fill="black"/>
<path d="M41.471 8.99805V15.3663C41.471 15.8248 41.7026 15.9804 42.0365 15.9804C42.1216 15.9833 42.2068 15.9756 42.2896 15.9574V17.2674C42.0145 17.3699 41.7197 17.4217 41.4225 17.4197C40.3148 17.4197 39.6523 16.8253 39.6523 15.7937V8.99805H41.471Z" fill="black"/>
<path d="M48.7951 16.7486C48.2565 17.1449 47.5994 17.4413 46.2997 17.4413C44.1633 17.4413 43.0557 16.3425 43.0557 14.2023C43.0557 12.1931 44.2854 10.9961 46.2458 10.9961C47.9782 10.9961 48.9782 11.9966 48.9782 13.5097C48.98 13.881 48.953 14.252 48.8974 14.6199H44.8437C44.8707 15.6024 45.3518 16.1362 46.5061 16.1362C46.7834 16.1386 47.0583 16.0901 47.3146 15.9936C47.5709 15.8971 47.8033 15.7546 47.998 15.5746L48.7951 16.7486ZM44.8994 13.5211H47.2978V13.3574C47.2978 12.632 46.9747 12.2504 46.2207 12.2504C45.3841 12.2504 44.903 12.7973 44.8796 13.5244L44.8994 13.5211Z" fill="black"/>
<path d="M19.0781 19.3184C19.1757 19.3174 19.2714 19.3429 19.3531 19.3915C19.4348 19.4401 19.4989 19.5097 19.5373 19.5915C19.5757 19.6733 19.5867 19.7636 19.5688 19.8511C19.5509 19.9386 19.5051 20.0193 19.437 20.083C19.3689 20.1467 19.2816 20.1906 19.1862 20.2091C19.0907 20.2276 18.9914 20.22 18.9008 20.187C18.8102 20.1541 18.7323 20.0974 18.6769 20.0241C18.6216 19.9508 18.5913 19.8642 18.5899 19.7752C18.5884 19.6576 18.6376 19.5442 18.7269 19.4594C18.8162 19.3745 18.9385 19.3251 19.0674 19.3217L19.0781 19.3184ZM18.8268 21.267H19.4102V26.2679H18.8268V21.267Z" fill="black"/>
<path d="M25.4295 26.2678H24.8478V22.9601C24.8478 22.1413 24.3882 21.6812 23.5481 21.6812C23.2149 21.6813 22.8898 21.7748 22.6168 21.9491C22.3438 22.1234 22.1362 22.37 22.0221 22.6555V26.2744H21.4404V21.2669H21.8749L22.0077 21.8138H22.0436C22.2402 21.6069 22.4842 21.442 22.7585 21.3308C23.0328 21.2195 23.3305 21.1648 23.6306 21.1703C24.7293 21.1703 25.4008 21.7205 25.4259 22.8258L25.4295 26.2678Z" fill="black"/>
<path d="M28.2177 24.4335C28.3811 24.8675 28.5121 25.3031 28.6342 25.7435H28.6755C28.8083 25.308 28.9609 24.8577 29.1135 24.4335L30.2625 21.2682H30.8927L29.0094 26.2676H28.2913L26.4062 21.2666H27.0561L28.2177 24.4335Z" fill="black"/>
<path d="M35.6056 25.9071C35.1137 26.1932 34.539 26.3381 33.9558 26.323C32.4406 26.323 31.6094 25.6385 31.6094 23.7456C31.6094 21.8526 32.7512 21.1943 33.8822 21.1943C35.155 21.1943 35.8246 21.9541 35.8246 23.1331C35.8246 23.3738 35.8067 23.6882 35.7725 23.9879H32.209C32.288 25.3421 32.902 25.8235 34.0419 25.8235C34.5041 25.8296 34.9571 25.7061 35.3399 25.4698L35.6056 25.9071ZM32.209 23.4836H35.1909V23.1561C35.1909 22.2309 34.7528 21.7036 33.7852 21.7036C33.0671 21.7036 32.288 22.1097 32.209 23.4917V23.4836Z" fill="black"/>
<path d="M37.1676 22.536C37.1676 21.8417 37.8175 21.1932 38.9988 21.1932C39.5455 21.1789 40.0785 21.3505 40.4943 21.6746L40.1047 22.0807C39.7961 21.8254 39.392 21.6877 38.9755 21.6959C38.1119 21.6959 37.7583 22.0807 37.7583 22.5278C37.7583 23.7674 40.575 23.2499 40.575 24.9611C40.575 25.6587 39.927 26.353 38.6828 26.353C38.0015 26.3793 37.335 26.1672 36.8193 25.7602L37.2089 25.3344C37.4084 25.5101 37.6445 25.6476 37.9032 25.7387C38.1619 25.8298 38.438 25.8728 38.7151 25.865C39.5571 25.865 39.9862 25.454 39.9862 24.9791C39.9844 23.715 37.1676 24.2373 37.1676 22.536Z" fill="black"/>
<path d="M42.295 25.0154V21.7322H41.4512V21.3768L42.2985 21.2688L42.4583 19.9424H42.8874V21.2688H44.4314V21.7338H42.8874V24.9515C42.8874 25.5738 43.2124 25.8374 43.7402 25.8374C44.0402 25.8558 44.34 25.7992 44.6073 25.6736L44.7868 26.1272C44.4303 26.2778 44.0393 26.348 43.6468 26.3319C42.7438 26.3139 42.295 25.88 42.295 25.0154Z" fill="black"/>
<path d="M51.075 21.1719C52.1522 21.1719 52.7662 21.7631 52.7662 22.8274V26.2662H52.1845V22.9453C52.1845 22.1266 51.768 21.6746 51.005 21.6746C50.7041 21.67 50.4095 21.7535 50.1645 21.913C49.9196 22.0725 49.7372 22.2994 49.6442 22.5605V26.2646H49.0626V22.9896C49.0626 22.1462 48.6461 21.6796 47.8849 21.6796C47.5702 21.6751 47.2634 21.7695 47.0159 21.9469C46.7685 22.1243 46.5954 22.3739 46.5258 22.6539V26.2727H45.9424V21.2669H46.3786L46.5097 21.8237H46.5528C46.7015 21.6076 46.9119 21.4324 47.1615 21.3171C47.411 21.2017 47.6902 21.1504 47.9692 21.1687C48.7789 21.1687 49.2367 21.5224 49.4414 21.9972H49.4844C49.655 21.5715 50.1936 21.1719 51.075 21.1719Z" fill="black"/>
<path d="M58.2129 25.9071C57.7215 26.1916 57.1485 26.3364 56.5666 26.323C55.0514 26.323 54.2148 25.6385 54.2148 23.7456C54.2148 21.8526 55.3566 21.1943 56.4858 21.1943C57.7569 21.1943 58.4283 21.9541 58.4283 23.1331C58.4283 23.3739 58.4086 23.6883 58.3744 23.9879H54.8432C54.9204 25.3421 55.5308 25.8236 56.6743 25.8236C57.1365 25.8296 57.5895 25.7061 57.9723 25.4699L58.2129 25.9071ZM54.8181 23.4836H57.7892V23.1561C57.7892 22.2309 57.3494 21.7036 56.3817 21.7036C55.6708 21.6954 54.8952 22.1015 54.8181 23.4836Z" fill="black"/>
<path d="M63.9452 26.2681H63.3617V22.9603C63.3617 22.1416 62.9075 21.6814 62.0637 21.6814C61.7305 21.6807 61.4052 21.7739 61.1324 21.9483C60.8595 22.1227 60.6524 22.3698 60.5395 22.6557V26.2746H59.9561V21.2671H60.3959L60.5252 21.8157H60.5664C60.7635 21.6094 61.0077 21.4449 61.2819 21.3337C61.556 21.2225 61.8535 21.1674 62.1535 21.1722C63.2504 21.1722 63.9236 21.7224 63.9487 22.8277L63.9452 26.2681Z" fill="black"/>
<path d="M65.8934 25.0154V21.7322H65.0479V21.3768L65.8934 21.2688L66.055 19.9424H66.4841V21.2688H68.028V21.7338H66.4841V24.9515C66.4841 25.5738 66.809 25.8374 67.3368 25.8374C67.6363 25.8572 67.936 25.8005 68.2021 25.6737L68.3816 26.1273C68.0245 26.278 67.6329 26.3482 67.2399 26.3319C66.3368 26.3139 65.8934 25.88 65.8934 25.0154Z" fill="black"/>
</svg>
