<svg width="16" height="16" viewBox="0 0 16 16" fill="none" xmlns="http://www.w3.org/2000/svg">
<path d="M4.25586 9.3506L5.66027 13.7418C5.75549 14.0572 6.13634 14.1542 6.37438 13.9601L10.5638 10.4181C10.5638 10.4181 6.08874 8.64704 6.08874 8.74408C6.11254 8.84112 4.25586 9.3506 4.25586 9.3506Z" fill="#001C32"/>
<path d="M15.3246 0.907281C12.5871 2.02328 3.73221 5.71091 0.375906 7.11803C-0.0763624 7.31212 -0.0287552 7.9429 0.423513 8.08846L4.25589 9.32576L5.6603 13.6927C5.70791 13.8625 5.85073 13.9838 6.01735 14.0081C6.13637 14.0323 6.3268 10.466 6.3268 10.466C6.3268 10.466 10.3496 13.4986 12.2539 14.93C12.73 15.2939 13.3965 15.027 13.5155 14.4448C14.0868 11.485 15.4912 4.03692 15.9911 1.46528C16.0625 1.10137 15.6816 0.785977 15.3246 0.907281Z" fill="#001C32"/>
<path d="M6.01732 14.0322C6.13634 14.0565 6.32677 10.4902 6.32677 10.4902L12.9442 4.15812C12.9918 4.1096 12.9442 4.03682 12.8728 4.08534L4.25586 9.34992L5.66027 13.7169C5.70788 13.8867 5.8507 14.008 6.01732 14.0322Z" fill="#F2F1F1"/>
</svg>
