<svg width="15" height="16" viewBox="0 0 15 16" fill="none" xmlns="http://www.w3.org/2000/svg">
<path fill-rule="evenodd" clip-rule="evenodd" d="M0 15.1741C0 15.0767 0.0482758 15.0279 0.0482758 14.9792C0.434483 13.7616 0.868965 12.5439 1.25517 11.3262C1.30345 11.2288 1.25517 11.1314 1.2069 11.034C0.531034 9.8163 0.193103 8.4525 0.241379 7.04C0.434483 3.63051 2.89655 0.708096 6.27586 0.123612C8.83448 -0.31475 11.0069 0.415854 12.8414 2.26672C14.0483 3.48439 14.6759 4.9456 14.869 6.65035C15.0138 8.20897 14.6759 9.76759 13.9517 11.0827C13.2759 12.2516 12.3103 13.2258 11.0552 13.9077C10.0897 14.4435 9.07586 14.7357 7.96551 14.7844C6.61379 14.8331 5.35862 14.5896 4.2 13.9564C4.10345 13.9077 4.0069 13.9077 3.91034 13.9077C2.65517 14.2973 1.4 14.687 0.193103 15.1254C0.144828 15.1254 0.0965517 15.1741 0 15.1741ZM1.88276 13.2745C1.97931 13.2258 2.02759 13.2258 2.12414 13.2258C2.75172 13.031 3.42758 12.7874 4.05517 12.5926C4.15172 12.5439 4.24827 12.5439 4.34483 12.6413C5.55172 13.4206 6.90345 13.7129 8.35172 13.518C9.65517 13.3719 10.8138 12.8361 11.731 11.9594C13.3241 10.4495 14 8.54992 13.6138 6.3094C13.3241 4.60465 12.3103 3.09474 10.8621 2.16931C9.9931 1.58482 8.97931 1.24387 7.86896 1.19517C6.56551 1.14646 5.35862 1.4387 4.24827 2.21801C2.41379 3.43569 1.49655 5.18914 1.44828 7.38095C1.44828 8.64733 1.78621 9.8163 2.51034 10.8879C2.6069 10.9853 2.6069 11.1314 2.55862 11.2288C2.41379 11.6672 2.26896 12.1542 2.12414 12.5926C2.07586 12.7874 1.97931 13.031 1.88276 13.2745Z" fill="#001C32"/>
<path fill-rule="evenodd" clip-rule="evenodd" d="M4.05469 5.77408C4.05469 5.14089 4.29607 4.65382 4.73055 4.26416C4.87538 4.11804 5.06848 4.06934 5.26158 4.06934C5.79262 4.06934 5.79262 4.06934 5.98572 4.55641C6.13055 4.94606 6.32365 5.33572 6.46848 5.72537C6.51676 5.87149 6.51676 5.96891 6.46848 6.06632C6.32365 6.26115 6.17882 6.45598 6.034 6.65081C5.93745 6.79693 5.88917 6.89434 5.98572 7.08917C6.56503 8.06331 7.33744 8.74521 8.39951 9.18357C8.54434 9.23228 8.64089 9.23228 8.73744 9.08616C8.93055 8.84262 9.07538 8.64779 9.26848 8.45296C9.41331 8.25814 9.46158 8.20943 9.65469 8.30684C10.1374 8.55038 10.6685 8.79391 11.1512 9.03745C11.2961 9.08616 11.2961 9.23228 11.2961 9.3784C11.2478 10.1577 10.9099 10.5474 9.99262 10.8396C9.55813 10.9857 9.12365 10.8396 8.68917 10.7422C7.04779 10.2551 5.84089 9.28098 4.87538 7.86848C4.53745 7.38141 4.24779 6.94305 4.10296 6.35856C4.10296 6.11503 4.10296 5.9202 4.05469 5.77408Z" fill="#001C32"/>
</svg>
