<svg width="14" height="11" viewBox="0 0 14 11" fill="none" xmlns="http://www.w3.org/2000/svg">
<path d="M10.5577 2.64097e-05H2.63089C1.93313 2.64097e-05 1.26396 0.296948 0.770569 0.825472C0.277182 1.354 0 2.07083 0 2.81827V7.55195C0 8.29939 0.277182 9.01623 0.770569 9.54475C1.26396 10.0733 1.93313 10.3702 2.63089 10.3702H10.5577C10.9042 10.3718 11.2475 10.3001 11.568 10.1592C11.8885 10.0183 12.1799 9.81093 12.4254 9.54908C12.6709 9.28722 12.8657 8.97599 12.9987 8.63327C13.1316 8.29055 13.2 7.92308 13.2 7.55195V2.81827C13.2 2.44715 13.1316 2.07967 12.9987 1.73695C12.8657 1.39423 12.6709 1.083 12.4254 0.821146C12.1799 0.559287 11.8885 0.351952 11.568 0.211041C11.2475 0.0701303 10.9042 -0.0015802 10.5577 2.64097e-05ZM9.27075 5.47059L4.86088 8.19612C4.81445 8.22345 4.76221 8.23747 4.70923 8.23682C4.65625 8.23616 4.60433 8.22086 4.55849 8.19238C4.51266 8.16391 4.47448 8.12323 4.44764 8.07429C4.4208 8.02536 4.40622 7.96982 4.40531 7.91307V2.45715C4.40622 2.4004 4.4208 2.34486 4.44764 2.29593C4.47448 2.24699 4.51266 2.20631 4.55849 2.17784C4.60433 2.14936 4.65625 2.13406 4.70923 2.1334C4.76221 2.13275 4.81445 2.14677 4.86088 2.1741L9.27075 4.90207C9.31706 4.93111 9.35546 4.97263 9.38215 5.0225C9.40884 5.07237 9.42288 5.12885 9.42288 5.18633C9.42288 5.24381 9.40884 5.30029 9.38215 5.35016C9.35546 5.40003 9.31706 5.44155 9.27075 5.47059Z" fill="#F2F1F1" fill-opacity="0.6"/>
</svg>
